<svg id="Layer_1" data-name="Layer 1" xmlns="http://www.w3.org/2000/svg" viewBox="0 0 1000 969.95"><path d="M745.41,381.39a42.43,42.43,0,0,0-14.1-5.77,73.79,73.79,0,0,0-15.7-1.72c-4.25,0-8.33.09-12.27.25a41.53,41.53,0,0,0-9.31,1.23v71.11a13.52,13.52,0,0,0,3.92.61c1.8.07,3.69.17,5.65.24s3.82.13,5.64.13h3.92a86.18,86.18,0,0,0,16.55-1.6,42.73,42.73,0,0,0,14.83-5.75,30.45,30.45,0,0,0,10.67-11.78q4-7.6,4-19.37,0-10.07-3.79-16.8A30.47,30.47,0,0,0,745.41,381.39Z"/><path d="M807.44,221.12,673.71,241.48l-70.6,109.28h.09l-9,13.82-34.92,54.05-.33-.06-23.67,36.24,71,112.1h-30L527.55,489.4l-8.35-18.52-8,18.52-50,77.51H432.44L504.39,457,438.61,350.76h30.88l43.85,73.17,7.71,17.6,7.42-17.6,6.27-9.91-.65-.12,30.56-47.12,10.14-16H575l67.82-104.59-459.2,69.91-25.55,313h744ZM374.06,529.85H279.4V358.22h93.42v18.14H299.75v56.15h66.94v18.15H299.75v61h74.31Zm401.13-94.4a49.71,49.71,0,0,1-15,17.53,60.35,60.35,0,0,1-21.32,9.69,104,104,0,0,1-24.77,2.94h-4c-1.89,0-3.85,0-5.88-.12s-4-.2-6-.37a39.73,39.73,0,0,1-4.18-.49v65.22H673.67V359.92A124.14,124.14,0,0,1,693.78,357q10.8-.74,21.34-.72A123.08,123.08,0,0,1,738,358.45a62.14,62.14,0,0,1,21.21,8.1,45.64,45.64,0,0,1,15.57,16.18q6,10.29,6,26.24Q780.83,424.66,775.19,435.45Z"/></svg>