<?xml version="1.0" encoding="utf-8"?>
<!-- Generator: Adobe Illustrator 25.2.3, SVG Export Plug-In . SVG Version: 6.00 Build 0)  -->
<svg version="1.1" id="Layer_1" xmlns="http://www.w3.org/2000/svg" xmlns:xlink="http://www.w3.org/1999/xlink" x="0px" y="0px"
	 viewBox="0 0 480.18 1000" style="enable-background:new 0 0 480.18 1000;" xml:space="preserve">
<g>
	<defs>
		<rect id="SVGID_5_" x="34.24" y="53.83" width="394.63" height="892.33"/>
	</defs>
	<clipPath id="SVGID_2_">
		<use xlink:href="#SVGID_5_"  style="overflow:visible;"/>
	</clipPath>
	<path style="clip-path:url(#SVGID_2_);" d="M34.94,881.94c0,0-0.19,7.1,7.01,7.1h65.3c0,0,10.79-0.39,10.79-13.35
		c0-12.97-10.6-14.85-10.6-14.85H75.07c0,0-11.07-0.56-11.36-10.7c-0.29-10.13,0-40.32,0-40.32s-0.39-11.63,11.26-11.63h273.15
		c0,0,8.15-0.48,11.74,7.28c3.59,7.76,2.64,7.01,6.72,12.97c4.08,5.96,6.62,8.23,6.62,8.23s2.18,4.54,2.18,7.19v14.58
		c0,0-1.23,11.55-11.54,11.55h-30.48c0,0-11.92-0.47-11.92,13.73s12.49,15.42,12.49,15.42h59.82c0,0,6.81-0.84,6.81,6.81v43.45
		c0,0-0.29,6.77,6.77,6.77h8.85c0,0,12.39,0.7,12.39-9.9v-77.7c0,0-0.47-7.34-7.34-7.34h-10.27c0,0-6.83,1.23-6.83-6.84v-21.89
		c0,0,1.53-5.58-3.48-9.55s-7.76-4.45-12.58-13.73c-4.83-9.28-5.59-18.37-5.59-18.37s-1.23-11.26-11.26-11.26H104.4
		c0,0-11.83,0.95-11.83-9.55V161.86c0,0,0.85-12.11,11.92-12.11h8.14c0,0,13.26-0.85,13.26-13.44c0-12.6-10.89-15.8-14.39-15.8
		h-28.5c0,0-18.83,0.37-18.83-17.24c0-17.59,12.97-20.15,19.03-20.15h298.05c0,0,17.84,0.47,17.84,17.84
		c0,17.36-15.39,19.73-17.57,19.73h-30c0,0-14.87,0.1-14.87,15.8c0,15.72,15.43,13.35,15.43,13.35h6.44c0,0,10.22,0.37,13.53,7.57
		c3.3,7.19,2.18,13.34-1.42,18.37c-3.61,5.01-9.84,11.83-13.45,24.79c-3.59,12.97-3.5,22.72-3.03,24.23
		c0.48,1.51,3.22,10.12,12.4,10.04c9.18-0.1,13.73-4.07,14.39-9.09c0.66-5.02-0.39-13.16,6.06-25.08
		c6.43-11.94,13.82-14.77,13.82-14.77s3.88-1.42,3.79-6.06c-0.1-4.64,0-23.09,0-23.09s-0.39-6.72,7.01-6.81c7.38-0.1,9.83,0,9.83,0
		s7.39-0.19,7.39-6.72v-76.3c0,0,0.76-13.05-12.11-13.05H46.86c0,0-12.21-1.24-12.21,10.68v74.96c0,0,1.05,10.04,11.55,10.04h6.81
		c0,0,11.69-0.74,11.69,12.98v596.67c0,0-2.33,10.53-12.45,10.53H46.2c0,0-11.96,0.55-11.96,12.32
		C34.23,793.83,34.94,881.94,34.94,881.94"/>
</g>
</svg>
