<?xml version="1.0" encoding="utf-8"?>
<!-- Generator: Adobe Illustrator 25.2.3, SVG Export Plug-In . SVG Version: 6.00 Build 0)  -->
<svg version="1.1" id="Layer_1" xmlns="http://www.w3.org/2000/svg" xmlns:xlink="http://www.w3.org/1999/xlink" x="0px" y="0px"
	 viewBox="0 0 1000 676.69" style="enable-background:new 0 0 1000 676.69;" xml:space="preserve">
<style type="text/css">
	.st0{fill:#726350;}
	.st1{clip-path:url(#SVGID_2_);}
	.st2{clip-path:url(#SVGID_2_);fill:#472D23;}
	.st3{clip-path:url(#SVGID_4_);fill:#949494;}
	.st4{fill:none;stroke:#000000;stroke-width:25.5118;}
	.st5{fill:#808080;}
	.st6{fill:#FFFFFF;}
	.st7{clip-path:url(#SVGID_6_);fill:#808080;}
</style>
<g>
	<polygon class="st5" points="48.5,643.34 48.5,84.92 349.46,42.63 349.5,42.63 349.5,601.03 	"/>
	<polygon class="st6" points="75.77,117.88 200.09,99.34 200.09,322.31 75.77,340.84 	"/>
	<polygon class="st6" points="210.67,173.96 334.99,155.42 334.99,378.38 210.67,396.92 	"/>
	<polygon class="st6" points="114.61,370.2 179.96,361.01 179.96,465.06 114.61,474.24 	"/>
	<polygon class="st6" points="114.61,498.04 179.96,488.85 179.96,592.9 114.61,602.09 	"/>
	<polygon class="st6" points="203.09,484.16 268.44,474.98 268.44,579.02 203.09,588.21 	"/>
	<polygon class="st5" points="650.5,84.93 951.5,42.62 951.5,601.03 650.5,643.33 	"/>
	<polygon class="st6" points="661.97,117.88 793.87,99.34 793.87,322.3 661.97,340.84 	"/>
	<polygon class="st6" points="663.71,502.98 833.55,479.11 833.55,582.77 663.71,606.63 	"/>
	<polygon class="st6" points="851.76,90.06 917.12,80.88 917.12,184.92 851.76,194.11 	"/>
	<polygon class="st6" points="851.76,218.72 917.12,209.53 917.12,313.58 851.76,322.76 	"/>
	<polygon class="st6" points="851.76,475.31 917.12,466.12 917.12,570.17 851.76,579.35 	"/>
	<polygon class="st6" points="854.17,348.83 919.54,339.65 919.54,443.69 854.17,452.88 	"/>
	<polygon class="st5" points="349.5,601.04 349.5,42.62 349.52,42.63 650.5,84.93 650.5,643.34 650.48,643.34 	"/>
	<polygon class="st6" points="380.62,560.82 380.62,337.85 503.09,356.38 503.09,579.35 	"/>
	<polygon class="st6" points="513.51,583.55 513.51,360.58 635.99,379.12 635.99,602.08 	"/>
	<polygon class="st6" points="380.61,80.87 625.28,115.26 625.28,219.3 380.61,184.92 	"/>
	<polygon class="st6" points="445.98,218.71 380.62,209.53 380.62,313.57 445.98,322.76 	"/>
</g>
</svg>
