<svg id="Layer_1" data-name="Layer 1" xmlns="http://www.w3.org/2000/svg" viewBox="0 0 1000 969.95"><path d="M422.78,80.22l149.07,86.07L422.78,252.36Zm-10.7-18.55V270.91L593.27,166.29Z"/><path d="M422.79,270.91V443.05L571.87,357ZM412.07,461.59V252.36L593.28,357Z"/><path d="M587.93,366.26V538.39L737,452.33ZM577.22,556.94V347.71L758.43,452.33Z"/><path d="M422.79,461.6V633.74l149.08-86.07ZM412.07,652.28V443.05L593.28,547.67Z"/><path d="M428.13,452.32l149.08,86.07V366.25ZM587.92,556.94,406.71,452.32,587.92,347.71Z"/><path d="M593.28,166.29,742.35,80.22V252.36ZM753.07,61.67,571.86,166.29,753.07,270.91Z"/><path d="M753.07,270.91,902.15,357,753.07,443.05ZM742.35,461.6,923.56,357,742.35,252.37Z"/><path d="M587.93,175.57V347.7L737,261.64ZM577.22,366.25V157L758.43,261.64Z"/><path d="M587.92,729.08V556.93L737,643Zm-10.7-190.69V747.63L758.42,643Z"/></svg>